<?xml version="1.0" standalone="no"?>
<!DOCTYPE svg PUBLIC "-//W3C//DTD SVG 20010904//EN"
 "http://www.w3.org/TR/2001/REC-SVG-20010904/DTD/svg10.dtd">
<svg version="1.0" xmlns="http://www.w3.org/2000/svg"
 width="1280.000000pt" height="1280.000000pt" viewBox="0 0 1280.000000 1280.000000"
 preserveAspectRatio="xMidYMid meet">
<metadata>
Created by potrace 1.15, written by Peter Selinger 2001-2017
</metadata>
<g transform="translate(0.000000,1280.000000) scale(0.100000,-0.100000)"
fill="#000000" stroke="none">
<path d="M6135 12790 c-50 -5 -137 -16 -195 -24 -57 -9 -138 -16 -179 -16
-254 -1 -621 -64 -916 -159 -66 -21 -167 -48 -225 -60 -255 -54 -533 -154
-785 -285 -77 -39 -185 -89 -240 -111 -232 -91 -502 -245 -719 -410 -66 -49
-129 -96 -140 -104 -12 -8 -84 -56 -161 -107 -202 -133 -339 -247 -512 -424
-185 -189 -175 -180 -354 -353 -194 -189 -325 -351 -479 -593 -36 -56 -106
-155 -155 -220 -161 -212 -296 -447 -401 -698 -25 -61 -85 -190 -133 -286
-135 -270 -210 -481 -272 -760 -17 -74 -46 -184 -65 -244 -91 -284 -135 -535
-154 -876 -5 -91 -17 -214 -26 -275 -24 -157 -24 -615 0 -770 9 -60 21 -182
26 -269 20 -355 63 -603 159 -901 21 -66 48 -167 60 -225 54 -255 154 -533
285 -785 39 -77 89 -185 111 -240 91 -232 245 -502 410 -719 49 -66 96 -129
104 -140 8 -12 56 -84 107 -161 133 -202 247 -339 424 -512 181 -176 170 -166
353 -354 190 -194 351 -325 593 -479 56 -36 155 -106 220 -155 212 -162 445
-295 697 -400 62 -26 198 -89 302 -141 269 -133 480 -207 760 -269 66 -14 167
-41 225 -60 285 -91 545 -137 878 -155 92 -5 217 -17 277 -26 157 -24 615 -24
770 0 61 9 182 21 269 26 355 20 603 63 901 159 66 21 167 48 225 60 255 54
533 154 785 285 77 39 185 89 240 111 232 91 502 245 719 410 66 49 129 96
140 104 12 8 84 56 161 107 202 133 339 247 512 424 185 189 175 180 354 353
194 189 325 351 479 593 36 56 106 155 155 220 161 212 296 447 401 698 25 61
85 190 133 286 135 270 210 481 272 760 17 74 46 184 65 244 91 284 135 535
154 876 5 91 17 215 26 275 24 157 24 615 0 770 -9 61 -21 182 -26 269 -20
355 -63 603 -159 901 -21 66 -48 167 -60 225 -54 255 -154 533 -285 785 -39
77 -89 185 -111 240 -91 232 -245 502 -410 719 -49 66 -96 129 -104 140 -8 12
-56 84 -107 161 -133 202 -247 339 -424 512 -189 185 -180 175 -353 354 -189
194 -351 325 -593 479 -56 36 -155 106 -220 155 -212 162 -445 295 -697 400
-62 26 -197 89 -302 141 -269 133 -480 207 -760 269 -66 14 -167 41 -225 60
-285 91 -544 137 -878 155 -92 5 -214 16 -272 25 -125 18 -526 28 -655 15z"/>
</g>
</svg>
